<svg width="76" height="53" viewBox="0 0 76 53" fill="none" xmlns="http://www.w3.org/2000/svg">
<path d="M1.25623 0L11.728 2.43902C7.93366 16.2375 16.5286 30.1786 30.8899 33.5144C35.8239 34.649 40.9727 34.4331 45.7942 32.8895C50.6157 31.3459 54.9313 28.5318 58.2864 24.7434C60.8743 21.8072 62.7621 18.3229 63.8079 14.5526L74.3 16.9848C72.834 22.2852 70.1835 27.1843 66.5482 31.3132C61.8418 36.6279 55.7878 40.5759 49.024 42.7413C42.2602 44.9066 35.037 45.2091 28.1156 43.6169C7.99486 38.9223 -4.06125 19.3627 1.25623 0Z" fill="#E24A28"/>
<path d="M13.4345 9.87199L11.7277 2.43945C10.6469 6.3356 10.5442 10.4379 11.4285 14.3832L13.1081 21.8089C12.2281 17.8641 12.3402 13.7629 13.4345 9.87199Z" fill="#E24A28"/>
<path d="M66.5753 31.2998C61.8689 36.6145 55.8149 40.5625 49.0511 42.7279C42.2872 44.8932 35.0641 45.1957 28.1427 43.6035C13.9242 40.2949 3.73804 29.5877 0.841309 16.7676L2.52087 24.1933C5.4176 37.0134 15.6037 47.7274 29.8222 51.0293C36.7436 52.623 43.9672 52.3212 50.7313 50.1557C57.4954 47.9903 63.5494 44.0414 68.2549 38.7255C71.8892 34.5996 74.5375 29.7024 75.9999 24.4039L74.3271 16.9714C72.8611 22.2718 70.2106 27.1709 66.5753 31.2998Z" fill="#F36A3E"/>
</svg>
