<svg width="12" height="22" viewBox="0 0 12 22" fill="none" xmlns="http://www.w3.org/2000/svg">
<path d="M1.83247 0.779599L11.0388 10.224C11.2005 10.3899 11.291 10.6124 11.291 10.8441C11.291 11.0757 11.2005 11.2982 11.0388 11.4641L1.83247 20.9121C1.75715 20.9894 1.6671 21.0509 1.56762 21.0929C1.46815 21.1349 1.36127 21.1565 1.2533 21.1565C1.14533 21.1565 1.03845 21.1349 0.938977 21.0929C0.839503 21.0509 0.749449 20.9894 0.674128 20.9121C0.519169 20.7534 0.432416 20.5404 0.432416 20.3187C0.432416 20.0969 0.519169 19.8839 0.674128 19.7253L9.33151 10.8441L0.674128 1.96459C0.5197 1.80603 0.433283 1.59343 0.433283 1.3721C0.433283 1.15076 0.5197 0.938165 0.674128 0.779599C0.749449 0.70224 0.839503 0.640754 0.938977 0.59877C1.03845 0.556786 1.14533 0.535156 1.2533 0.535156C1.36127 0.535156 1.46815 0.556786 1.56762 0.59877C1.6671 0.640754 1.75715 0.70224 1.83247 0.779599Z" fill="#F36A3E"/>
</svg>
