<svg width="11" height="22" viewBox="0 0 11 22" fill="none" xmlns="http://www.w3.org/2000/svg">
<path d="M9.54985 0.779599L0.343499 10.224C0.181804 10.3899 0.0913086 10.6124 0.0913086 10.8441C0.0913086 11.0757 0.181804 11.2982 0.343499 11.4641L9.54985 20.9121C9.62517 20.9894 9.71523 21.0509 9.8147 21.0929C9.91418 21.1349 10.0211 21.1565 10.129 21.1565C10.237 21.1565 10.3439 21.1349 10.4433 21.0929C10.5428 21.0509 10.6329 20.9894 10.7082 20.9121C10.8632 20.7534 10.9499 20.5404 10.9499 20.3187C10.9499 20.0969 10.8632 19.8839 10.7082 19.7253L2.05081 10.8441L10.7082 1.96459C10.8626 1.80603 10.949 1.59343 10.949 1.3721C10.949 1.15076 10.8626 0.938165 10.7082 0.779599C10.6329 0.70224 10.5428 0.640754 10.4433 0.59877C10.3439 0.556786 10.237 0.535156 10.129 0.535156C10.0211 0.535156 9.91418 0.556786 9.8147 0.59877C9.71523 0.640754 9.62517 0.70224 9.54985 0.779599Z" fill="#F36A3E"/>
</svg>
